<svg id="visual" viewBox="0 0 900 600" width="900" height="600" xmlns="http://www.w3.org/2000/svg" xmlns:xlink="http://www.w3.org/1999/xlink" version="1.1"><rect x="0" y="0" width="900" height="600" fill="#ffffff"></rect><path d="M317 600L340.7 575C364.3 550 411.7 500 428.7 450C445.7 400 432.3 350 430.5 300C428.7 250 438.3 200 462.8 150C487.3 100 526.7 50 546.3 25L566 0L900 0L900 25C900 50 900 100 900 150C900 200 900 250 900 300C900 350 900 400 900 450C900 500 900 550 900 575L900 600Z" fill="#121723" stroke-linecap="round" stroke-linejoin="miter"></path></svg>